# xmcd
#
# Track frame offsets: 
#        150
#        13981
#        27512
#        41224
#        54607
#        69440
#        84378
#        99752
#        114738
#        126193
#        139988
#        155631
#        167432
#        180785
#        195403
#        206433
#        218341
#        231734
#        244399
#        255016
#        268658
#        279921
#
# Disc length: 3945 seconds
#
# Revision: 3
# Processed by: cddbd v1.5.2PL0 Copyright (c) Steve Scherf et al.
# Submitted via: ExactAudioCopyFreeDBPlugin 1.0
#
DISCID=310f6716
DTITLE=Blind Blake - All The Published Sides [Disc E]
DYEAR=2003
DGENRE=Blues
TTITLE0=Guitar Chimes (1929)
TTITLE1=Blind Arthur's Breakdown
TTITLE2=Baby Lou Blues
TTITLE3=Cold Love Blues
TTITLE4=Blind Blake and Papa Charlie Jackson - Papa Charlie And Blind Bl
TTITLE4=ake Talk About It - Part 1
TTITLE5=Blind Blake and Papa Charlie Jackson - Papa Charlie And Blind Bl
TTITLE5=ake Talk About It - Part 2
TTITLE6=Blind Blake and Irene Scruggs - Stingaree Man Blues (1930)
TTITLE7=Blind Blake and Irene Scruggs - Itching Heel
TTITLE8=Blind Blake and Irene Scruggs - You've Got What I Want
TTITLE9=Blind Blake and Irene Scruggs - Cherry Hill Blues
TTITLE10=Diddie Wah Diddie No. 2
TTITLE11=Hard Pushin' Papa
TTITLE12=What A Low Down Place The Jailhouse Is
TTITLE13=Ain't Gonna Do That No More
TTITLE14=Playing Policy Blues
TTITLE15=Righteous Blues
TTITLE16=Fancy Tricks (1931)
TTITLE17=Rope Stretchin' Blues - Part 2
TTITLE18=Rope Stretchin' Blues - Part 1
TTITLE19=Rope Stretchin' Blues - Part 1
TTITLE20=Champagne Charlie Is My Name (1932)
TTITLE21=Depression's Gone From Me Blues
EXTD=
EXTT0=
EXTT1=
EXTT2=
EXTT3=
EXTT4=
EXTT5=
EXTT6=
EXTT7=
EXTT8=
EXTT9=
EXTT10=
EXTT11=
EXTT12=
EXTT13=
EXTT14=
EXTT15=
EXTT16=
EXTT17=
EXTT18=
EXTT19=
EXTT20=
EXTT21=
PLAYORDER=
